<svg id="svg" version="1.1" xmlns="http://www.w3.org/2000/svg" xmlns:xlink="http://www.w3.org/1999/xlink" viewBox="0, 0, 400,400"><g id="svgg"><path id="path0" d="M324.885 344.677 C 324.542 346.713,324.400 354.697,324.400 371.977 L 324.400 396.400 350.020 396.400 L 375.640 396.400 375.516 370.300 C 375.448 355.945,375.257 343.930,375.091 343.600 C 374.832 343.084,343.532 342.402,336.400 342.756 C 329.667 343.090,325.611 342.958,325.495 342.400 C 325.426 342.070,325.151 343.095,324.885 344.677 M36.440 342.762 C 36.131 342.960,34.151 343.056,32.040 342.975 C 29.928 342.894,27.615 343.016,26.900 343.245 L 25.600 343.662 25.600 371.031 L 25.600 398.400 51.000 398.400 L 76.400 398.400 76.400 371.171 C 76.400 349.907,76.290 343.840,75.900 343.471 C 75.430 343.028,43.747 342.512,39.800 342.883 C 39.580 342.904,38.860 342.804,38.200 342.661 C 37.540 342.518,36.748 342.564,36.440 342.762 " stroke="none" fill="#711bd0" fill-rule="evenodd"></path><path id="path1" d="M324.503 126.400 C 324.490 160.390,324.624 187.750,324.800 187.200 C 324.976 186.650,325.138 186.380,325.160 186.600 C 325.215 187.153,374.782 187.155,374.847 186.601 C 374.873 186.381,375.032 186.740,375.200 187.400 C 375.368 188.060,375.500 160.700,375.493 126.600 C 375.486 92.500,375.372 65.320,375.240 66.200 C 374.949 68.139,375.351 68.051,366.800 68.042 C 363.170 68.038,358.310 68.034,356.000 68.034 C 353.690 68.034,347.570 68.114,342.400 68.212 C 332.336 68.402,327.086 68.426,325.800 68.287 C 325.173 68.219,324.949 67.811,324.763 66.400 C 324.632 65.410,324.515 92.410,324.503 126.400 M25.600 127.608 L 25.600 187.615 26.700 187.313 C 27.305 187.146,38.735 187.012,52.100 187.015 L 76.400 187.020 76.400 127.278 L 76.400 67.536 75.100 67.831 C 74.385 67.993,70.920 68.106,67.400 68.083 C 56.020 68.006,53.158 68.021,43.400 68.205 C 29.854 68.461,27.607 68.432,26.781 67.990 C 26.380 67.775,25.951 67.600,25.826 67.600 C 25.702 67.600,25.600 94.603,25.600 127.608 " stroke="none" fill="#dbb914" fill-rule="evenodd"></path><path id="path2" d="M25.600 310.442 C 25.600 341.957,25.636 343.669,26.300 343.367 C 26.685 343.192,29.070 342.994,31.600 342.927 C 34.130 342.860,36.650 342.781,37.200 342.751 C 37.750 342.721,38.650 342.732,39.200 342.777 C 39.750 342.821,42.360 342.851,45.000 342.843 C 59.534 342.799,75.599 343.039,75.599 343.300 C 75.600 343.465,75.780 343.600,76.000 343.600 C 76.263 343.600,76.400 332.279,76.400 310.436 L 76.400 277.272 51.000 277.235 L 25.600 277.198 25.600 310.442 M324.789 278.229 C 324.547 278.866,324.416 291.967,324.444 312.926 C 324.480 341.127,324.569 346.210,324.992 344.200 C 325.270 342.880,325.521 342.070,325.549 342.400 C 325.597 342.959,329.642 343.092,336.400 342.756 C 345.599 342.299,374.853 343.090,375.001 343.800 C 375.093 344.240,375.247 344.960,375.341 345.400 C 375.436 345.840,375.488 330.848,375.457 312.085 C 375.408 282.809,375.318 277.920,374.822 277.613 C 374.500 277.415,363.360 277.245,349.711 277.231 L 325.178 277.206 324.789 278.229 " stroke="none" fill="#1b4aaf" fill-rule="evenodd"></path><path id="path3" d="M25.600 33.751 L 25.600 67.503 26.700 67.950 C 27.918 68.445,29.467 68.469,43.400 68.206 C 53.157 68.021,56.017 68.006,67.400 68.083 C 70.920 68.106,74.385 67.993,75.100 67.831 L 76.400 67.536 76.400 33.768 L 76.400 0.000 51.000 0.000 L 25.600 0.000 25.600 33.751 M324.403 31.500 C 324.406 65.199,324.500 68.204,325.550 68.269 C 327.508 68.391,334.083 68.369,342.400 68.212 C 354.467 67.984,358.610 67.960,365.000 68.085 C 367.860 68.140,371.304 68.103,372.653 68.001 L 375.105 67.816 375.353 65.449 C 375.489 64.148,375.600 48.889,375.600 31.541 L 375.600 0.000 350.000 0.000 L 324.400 0.000 324.403 31.500 " stroke="none" fill="#de3314" fill-rule="evenodd"></path><path id="path4" d="M324.656 187.618 C 324.281 189.495,324.422 225.981,324.800 224.800 C 324.976 224.250,325.138 224.025,325.160 224.300 C 325.219 225.033,374.787 225.033,374.828 224.300 C 374.844 224.025,375.011 224.160,375.200 224.600 C 375.627 225.595,375.627 189.080,375.200 187.400 C 375.032 186.740,374.873 186.381,374.847 186.603 C 374.789 187.102,325.517 187.170,325.156 186.672 C 325.023 186.487,324.798 186.912,324.656 187.618 M28.600 187.109 C 27.940 187.170,26.995 187.308,26.500 187.417 L 25.600 187.615 25.605 205.308 C 25.608 215.038,25.719 223.405,25.852 223.900 L 26.093 224.800 51.000 224.800 L 75.907 224.800 76.148 223.900 C 76.281 223.405,76.392 214.945,76.395 205.100 L 76.400 187.200 74.100 187.140 C 69.738 187.026,29.797 186.998,28.600 187.109 " stroke="none" fill="#6bca0f" fill-rule="evenodd"></path><path id="path5" d="M25.646 250.300 L 25.600 277.200 40.700 277.246 C 49.005 277.271,60.390 277.265,66.000 277.232 L 76.200 277.172 76.255 250.286 C 76.285 235.499,76.227 223.715,76.126 224.100 C 75.953 224.757,74.417 224.800,51.000 224.800 C 27.583 224.800,26.047 224.757,25.876 224.100 C 25.775 223.715,25.672 235.505,25.646 250.300 M324.669 225.156 C 324.251 227.244,324.391 279.148,324.811 278.103 L 325.172 277.206 349.708 277.231 C 374.273 277.256,374.884 277.284,375.308 278.400 C 375.434 278.730,375.538 266.940,375.540 252.200 C 375.542 237.460,375.389 225.040,375.200 224.600 C 375.011 224.160,374.844 224.025,374.828 224.300 C 374.787 225.027,325.344 225.033,325.102 224.306 C 325.012 224.035,324.817 224.417,324.669 225.156 " stroke="none" fill="#1bb617" fill-rule="evenodd"></path></g></svg>