<?xml version="1.0" encoding="UTF-8"?>
<svg viewBox="0 0 533.33 533.33" xmlns="http://www.w3.org/2000/svg">
 <g fill-rule="evenodd">
  <g stroke="#000" stroke-linejoin="bevel" stroke-width="3.75">
   <path d="m417.55 301.68c3.712-0.41199 69.899 7.155 74.645-9.46 11.867-33.227-8.703-60.918-37.184-71.203-28.481-5.538-24.524-2.373-61.708-7.911-34.019-44.303-18.987-113.92-100.48-108.39-91.772-2.373-106.01 75.949-136.08 98.893-21.362 25.316-102.06-11.076-104.43 31.645-3.1646 15.032-5.538 51.424 18.987 67.247 11.867 0 31.646 0.79098 39.557 0.79098 0.7911-56.17 67.247-47.468 68.039-1.582 18.195 1.582 156.64-1.582 166.14-2.373-0.82501-51.491 75.739-53.252 72.507 2.339z" fill="#00007f"/>
   <g fill="#01ffff">
    <path d="m164.66 211.52s39.557-70.411 70.411-88.608c19.778-8.702 35.601-13.449 49.051-12.658 0.79098-5.538 4.746 89.399-1.583 102.06-12.658 3.165-112.34 0.79102-117.88-0.79098z"/>
    <path d="m292.04 110.25s-4.747 99.684 3.165 102.85c13.449 0.79001 83.069 2.372 86.234-4.748-14.24-7.12-12.658-107.59-89.399-98.101z"/>
   </g>
   <path d="m60.234 221.8c-5.538 7.12-6.3292 15.032-4.7469 24.526 13.449 6.328 26.899-33.228 4.7469-24.526z" fill="#ffffb6"/>
   <path d="m487.45 251.87c1.582-9.494-14.24-13.449-13.45-0.001007-1.581 13.45 14.24 13.45 13.45 0.001007z" fill="#ae0000"/>
   <g fill="#bfbfbf">
    <path d="m46.785 278.76s3.1646-11.075 20.57-1.582c16.614 13.45-22.152 22.944-20.57 1.582z"/>
    <path d="m501.04 275.6s-3.1646-11.075-20.57-1.582c-16.614 13.45 22.152 22.944 20.57 1.582z"/>
   </g>
   <g fill="none">
    <path d="m163.87 211.52c22.151 47.468 18.197 83.862 19.779 83.862 3.164 0 91.772 2.372 99.683-1.583 3.165-18.987-1.582-82.279-1.582-82.279-8.703 3.165-100.48 2.373-117.88 0z"/>
    <path d="m294.41 212.31c0.79098 6.329-2.373 79.905-2.373 82.279 13.449-9.77e-4 37.183 1.582 47.468-2.374 7.912-30.855 29.138-34.019 38.766-38.766 3.165-5.538 3.165-45.095 3.165-45.095-3.165 6.329-58.545 5.539-87.026 3.956z"/>
   </g>
   <g fill="#bfbfbf">
    <path d="m274.63 224.18c-0.79102-6.329-20.57-6.329-22.152 1.583 0.791 8.702 21.36 7.911 22.152-1.583z"/>
    <path d="m377.48 219.43c-0.79098-6.329-20.57-6.329-22.152 1.583 0.79102 8.702 21.36 7.911 22.152-1.583z"/>
   </g>
  </g>
  <g fill="#fff" stroke-width="1.25">
   <path d="m174.16 204.4c15.032-18.987 30.855-76.741 100.48-90.19-12.658 36.392-70.412 93.354-100.48 90.19z" fill-opacity=".711"/>
   <path d="m297.58 115.79c-3.165 5.538-3.956 51.424 2.374 80.696 18.987-61.708 42.721-89.399-2.374-80.696z" fill-opacity=".714"/>
  </g>
  <g stroke="#000">
   <g transform="matrix(.99913 -.041688 .041688 .99913 -2.8884 -52.638)">
    <g stroke-width="3.75">
     <path d="m131.41 327.11c-31.654-2.499-41.789 56.374 1.245 60.682 47.798-0.79098 32.875-61.473-1.245-60.682z" fill="#7f8080" stroke-linejoin="bevel"/>
     <path d="m131.61 339.25c17.039-2.954 32.716 32.489 2.272 37.26-26.128-0.45502-22.038-34.08-2.272-37.26z" fill="#bfbfbf"/>
    </g>
    <g fill="none">
     <path d="m132.07 354.69c5.453-1.818 7.271 7.498 2.5 6.816-6.362 2.5-8.406-5.452-2.5-6.816z" stroke-width="3.75"/>
     <g stroke-width="1.25">
      <path d="m132.3 343.11c-2.726 0-1.818 8.179 0.90799 7.952 2.727-0.22699 1.591-8.179-0.90799-7.952z"/>
      <path d="m133.89 365.15c-2.726 0-1.818 8.179 0.90799 7.952 2.727-0.22699 1.591-8.179-0.90799-7.952z"/>
      <path d="m147.82 357.11c0-2.726-8.179-1.818-7.952 0.90799 0.22699 2.727 8.179 1.591 7.952-0.90799z"/>
      <path d="m126.7 359.61c0-2.726-8.179-1.818-7.952 0.90799 0.22699 2.727 8.179 1.591 7.952-0.90799z"/>
     </g>
    </g>
   </g>
   <g transform="matrix(.69584 -.7182 .7182 .69584 15.102 128.74)">
    <g stroke-width="3.75">
     <path d="m134.28 347.9c-31.654-2.499-41.789 56.374 1.245 60.682 47.798-0.79098 32.875-61.473-1.245-60.682z" fill="#7f8080" stroke-linejoin="bevel"/>
     <path d="m134.48 360.03c17.039-2.954 32.716 32.489 2.272 37.26-26.128-0.45502-22.038-34.08-2.272-37.26z" fill="#bfbfbf"/>
    </g>
    <g fill="none">
     <path d="m134.94 375.48c5.453-1.818 7.271 7.498 2.5 6.816-6.362 2.5-8.406-5.452-2.5-6.816z" stroke-width="3.75"/>
     <g stroke-width="1.25">
      <path d="m135.16 363.89c-2.726 0-1.818 8.179 0.908 7.952 2.727-0.22699 1.591-8.179-0.908-7.952z"/>
      <path d="m136.75 385.93c-2.726 0-1.818 8.179 0.908 7.952 2.727-0.22699 1.591-8.179-0.908-7.952z"/>
      <path d="m150.69 377.9c0-2.726-8.179-1.818-7.952 0.90799 0.22699 2.727 8.179 1.591 7.952-0.90799z"/>
      <path d="m129.56 380.4c0-2.726-8.179-1.818-7.952 0.90799 0.22699 2.727 8.179 1.591 7.952-0.90799z"/>
     </g>
    </g>
   </g>
  </g>
 </g>
</svg>
