<?xml version="1.0" encoding="UTF-8"?>
<svg viewBox="0 0 597.35 295.82" xmlns="http://www.w3.org/2000/svg" xmlns:xlink="http://www.w3.org/1999/xlink">
 <defs>
  <filter id="r" x="-.017801" y="-.48747" width="1.0356" height="1.9749">
   <feGaussianBlur stdDeviation="4.543919"/>
  </filter>
  <linearGradient id="b" x1=".83965" x2=".31944" y1="1.0302" y2=".3" xlink:href="#p"/>
  <linearGradient id="q" x1=".21" x2=".29007" y1="-.6362" y2="1" xlink:href="#c"/>
  <linearGradient id="a" x1=".16035" x2=".68056" y1="-.030163" y2=".7" xlink:href="#p"/>
  <linearGradient id="c">
   <stop stop-color="#fff" offset="0"/>
   <stop stop-color="#fff" stop-opacity="0" offset="1"/>
  </linearGradient>
  <linearGradient id="t" x1=".52484" x2=".52182" y1="1.1379" y2=".004058">
   <stop stop-color="#9eecff" offset="0"/>
   <stop stop-color="#87efff" offset="1"/>
  </linearGradient>
  <linearGradient id="p">
   <stop stop-color="#bcbcbc" offset="0"/>
   <stop stop-color="#bcbcbc" stop-opacity="0" offset="1"/>
  </linearGradient>
  <linearGradient id="o">
   <stop offset="0"/>
   <stop stop-color="#3c3c3c" offset=".81319"/>
   <stop offset="1"/>
  </linearGradient>
  <linearGradient id="s" x1=".29142" x2=".4639" y1="-.18455" y2=".61676" xlink:href="#c"/>
  <linearGradient id="u" x1=".53379" x2=".54202" y1=".4418" y2="1.2168">
   <stop stop-color="#fff" offset="0"/>
   <stop stop-color="#fff" stop-opacity="0" offset="1"/>
  </linearGradient>
  <radialGradient id="x" cx="173.11" cy="532.03" r="61.067" gradientUnits="userSpaceOnUse" xlink:href="#o"/>
  <radialGradient id="w" cx="177.85" cy="532.74" r="8.0902" gradientTransform="translate(1.4858e-8 2.1719)" gradientUnits="userSpaceOnUse" xlink:href="#c"/>
  <radialGradient id="v" cx="173.11" cy="532.03" r="61.067" gradientTransform="translate(1.4858e-8 2.1719)" gradientUnits="userSpaceOnUse" xlink:href="#o"/>
  <radialGradient id="y" cx="177.85" cy="532.74" r="8.0902" gradientUnits="userSpaceOnUse" xlink:href="#c"/>
 </defs>
 <g fill-rule="evenodd">
  <rect transform="matrix(.99178 0 0 2.8219 20.732 -862.74)" x="33.701" y="382.72" width="509.52" height="18.287" rx="57.77" ry="9.1435" fill="#666" filter="url(#r)" stroke="#bcbcbc" stroke-width=".6"/>
  <path d="m430.35 220.63l114.09-7.106 3.56-8.813-13.954-34.55-104.69-5.552c0.33002 18.673 0.66-21.843 0.99002 56.021z" stroke="#000"/>
  <g fill="#7f003f">
   <path d="m263.4 28.536c-87.348 0.2629-141.95 54.181-185.01 88.679 9.4094-3.655 19.658-5.651 30.376-5.651 45.854 0 83.07 36.737 83.07 82.016 0 9.892-1.778 19.379-5.033 28.163l215.73-0.545c-3.604-9.184-5.587-19.175-5.587-29.611 0-45.278 37.216-82.016 83.07-82.016 16.229 0 31.374 4.609 44.171 12.564-5.069-4.402-9.976-8.167-14.139-10.571-17.253-9.963-54.926-12.087-63.898-13.95-8.875-1.8429-11.555-2.3019-14.05-4.655-9.259-8.7353-80.398-73.323-168.7-64.423z"/>
   <path d="m191.22 206.01l208.92-0.562 3.248 16.314h-221.91l9.742-15.752z"/>
  </g>
  <path d="m499.48 118.73c20.916 18.653 39.155 38.854 54.252 60.374 6.337-8.031 7.106-24.868 4.585-29.057-10.589-17.595-32.842-28.801-58.837-31.317z" fill="#ff007f" opacity=".992" stroke-width="1.909"/>
  <path d="m46.504 205.9l121 14.845 6.278-15.416-14.269-35.97-103.31-5.138-9.7029 41.679z" stroke="#000"/>
  <g transform="matrix(.92056 0 0 .92085 -.87926 -44.496)">
   <g stroke-width="11.4">
    <path d="m182.16 265.5c0 33.726-27.341 61.067-61.067 61.067-33.727 0-61.067-27.341-61.067-61.067 0-33.727 27.341-61.067 61.067-61.067s61.067 27.34 61.067 61.067z" fill="url(#v)"/>
    <path d="m164.33 264.17c0 23.692-19.206 42.898-42.899 42.898-23.692 0-42.898-19.206-42.898-42.898s19.206-42.899 42.898-42.899c23.693 0 42.899 19.207 42.899 42.899z" fill="#999"/>
    <path d="m162.67 264.1c-35.794-41.178-46.059 10.369-82.482 0 0-22.765 18.476-41.241 41.24-41.241 22.765 0 41.241 18.476 41.241 41.241z" fill="url(#q)"/>
   </g>
   <g fill="#080808" stroke-width="2.321">
    <path d="m102.6 252.09c-2.7598 2.152-7.1903 1.084-9.8956-2.385-2.7053-3.47-2.661-8.027 0.0989-10.179s7.1904-1.084 9.8957 2.386c2.705 3.469 2.661 8.026-0.098999 10.178z" stroke="url(#b)"/>
    <path d="m118.96 242.26c-3.397-0.842-5.293-4.986-4.235-9.257 1.058-4.27 4.669-7.05 8.066-6.208 3.397 0.841 5.293 4.985 4.235 9.256-1.058 4.27-4.669 7.05-8.066 6.209z" stroke="url(#a)"/>
    <path d="m136.97 249.26c-1.422-3.197 0.68399-7.239 4.704-9.027s8.432-0.64499 9.854 2.553c1.422 3.197-0.68401 7.239-4.704 9.027s-8.432 0.645-9.854-2.553z" stroke="url(#a)"/>
    <path d="m142.57 266.38c1.471-3.175 5.9-4.251 9.892-2.402s6.036 5.922 4.566 9.098c-1.471 3.176-5.9 4.251-9.892 2.402s-6.036-5.922-4.566-9.098z" stroke="url(#a)"/>
    <path d="m132.75 282.3c3.39-0.86899 7.024 1.881 8.116 6.143 1.093 4.262-0.77 8.422-4.16 9.29-3.39 0.86899-7.024-1.881-8.116-6.143-1.093-4.262 0.76999-8.421 4.16-9.29z" stroke="url(#a)"/>
    <path d="m112.99 284.34c2.673 2.259 2.538 6.815-0.303 10.175-2.84 3.36-7.309 4.253-9.982 1.994s-2.537-6.815 0.303-10.175 7.309-4.253 9.982-1.994z" stroke="url(#b)"/>
    <path d="m99.997 270.3c-0.1339 3.497-3.8064 6.196-8.2029 6.028-4.3964-0.16901-7.8519-3.14-7.718-6.637s3.8064-6.196 8.2029-6.028c4.3964 0.16901 7.8517 3.14 7.718 6.637z" stroke="url(#b)"/>
   </g>
   <path d="m129.22 264.17c0 4.302-3.488 7.79-7.791 7.79-4.302 0-7.79-3.488-7.79-7.79 0-4.303 3.488-7.79 7.79-7.79 4.303 0 7.791 3.487 7.791 7.79z" fill="url(#w)" opacity=".377" stroke="#bcbcbc" stroke-width=".6"/>
  </g>
 </g>
 <path d="m109.23 110.99c-45.854 0-81.792 36.753-81.792 82.031 0.4867 12.077 12.984 11.709 22.887 15.397 3.8686-42.183 27.492-61.191 63.335-60.871 36.698 0.31999 63.467 38.27 53.863 74.216l19.129-0.035c3.592-9.171 5.633-18.289 5.633-28.707 0-45.278-37.201-82.031-83.055-82.031z" fill="#7f003f" stroke-width="2.9"/>
 <g transform="matrix(.92056 0 0 .92085 373.65 -43.689)" fill-rule="evenodd">
  <g stroke-width="11.4">
   <path d="m182.16 265.5c0 33.726-27.341 61.067-61.067 61.067-33.727 0-61.067-27.341-61.067-61.067 0-33.727 27.341-61.067 61.067-61.067s61.067 27.34 61.067 61.067z" fill="url(#x)"/>
   <path d="m164.33 264.17c0 23.692-19.206 42.898-42.899 42.898-23.692 0-42.898-19.206-42.898-42.898s19.206-42.899 42.898-42.899c23.693 0 42.899 19.207 42.899 42.899z" fill="#999"/>
   <path d="m162.67 264.1c-35.794-41.178-46.059 10.369-82.482 0 0-22.765 18.476-41.241 41.24-41.241 22.765 0 41.241 18.476 41.241 41.241z" fill="url(#q)"/>
  </g>
  <g fill="#080808" stroke-width="2.321">
   <path d="m102.6 252.09c-2.7598 2.152-7.1903 1.084-9.8956-2.385-2.7053-3.47-2.661-8.027 0.0989-10.179s7.1904-1.084 9.8957 2.386c2.705 3.469 2.661 8.026-0.098999 10.178z" stroke="url(#b)"/>
   <path d="m118.96 242.26c-3.397-0.842-5.293-4.986-4.235-9.257 1.058-4.27 4.669-7.05 8.066-6.208 3.397 0.841 5.293 4.985 4.235 9.256-1.058 4.27-4.669 7.05-8.066 6.209z" stroke="url(#a)"/>
   <path d="m136.97 249.26c-1.422-3.197 0.68399-7.239 4.704-9.027s8.432-0.64499 9.854 2.553c1.422 3.197-0.68401 7.239-4.704 9.027s-8.432 0.645-9.854-2.553z" stroke="url(#a)"/>
   <path d="m142.57 266.38c1.471-3.175 5.9-4.251 9.892-2.402s6.036 5.922 4.566 9.098c-1.471 3.176-5.9 4.251-9.892 2.402s-6.036-5.922-4.566-9.098z" stroke="url(#a)"/>
   <path d="m132.75 282.3c3.39-0.86899 7.024 1.881 8.116 6.143 1.093 4.262-0.77 8.422-4.16 9.29-3.39 0.86899-7.024-1.881-8.116-6.143-1.093-4.262 0.76999-8.421 4.16-9.29z" stroke="url(#a)"/>
   <path d="m112.99 284.34c2.673 2.259 2.538 6.815-0.303 10.175-2.84 3.36-7.309 4.253-9.982 1.994s-2.537-6.815 0.303-10.175 7.309-4.253 9.982-1.994z" stroke="url(#b)"/>
   <path d="m99.997 270.3c-0.1339 3.497-3.8064 6.196-8.2029 6.028-4.3964-0.16901-7.8519-3.14-7.718-6.637s3.8064-6.196 8.2029-6.028c4.3964 0.16901 7.8517 3.14 7.718 6.637z" stroke="url(#b)"/>
  </g>
  <path d="m129.22 264.17c0 4.302-3.488 7.79-7.791 7.79-4.302 0-7.79-3.488-7.79-7.79 0-4.303 3.488-7.79 7.79-7.79 4.303 0 7.791 3.487 7.791 7.79z" fill="url(#y)" opacity=".377" stroke="#bcbcbc" stroke-width=".6"/>
 </g>
 <path d="m478.91 107.94c45.854 0 55.593 23.273 79.875 54.568 6.369 8.209-10.083 41.453-13.675 50.812l-3.953-0.693c2.167-41.412-19.438-65.133-56.284-66.538-27.543 0.106-61.494 20.968-54.08 75.211l-29.381 0.509c-3.592-9.359-5.557-19.524-5.557-30.156 0-46.206 37.201-83.713 83.055-83.713z" fill="#7f003f" stroke-width="2.9"/>
 <g fill-rule="evenodd">
  <path d="m243.23 39.528l2.636 62.477 176.89 2.055c-48.141-50.344-111.83-74.313-179.53-64.532zm-16.462 3.3161c-64.867 15.908-96.67 57.822-96.67 57.822l94.139 1.09 2.531-58.912z" fill="url(#t)" stroke="#087900" stroke-width="1.026"/>
  <path d="m273.11 43.074c-7.942 0.0415-15.882 0.5423-23.766 1.5045 0.645 17.15 1.346 34.299 2.106 51.444 53.148 0.61 106.3 1.1785 159.45 1.7639-37.387-34.151-86.977-55.419-137.79-54.713zm-51.522 7.1244c-29.29 8.2005-56.803 23.323-78.748 44.614 26.148 0.1451 52.292 0.6707 78.439 0.7608 0.49301-15.261 1.545-30.502 1.73-45.773-0.474 0.1326-0.948 0.2652-1.421 0.3977z" fill="url(#u)" opacity=".958" stroke-width="2.1"/>
  <path d="m235.5 39.012c-1.077 0-2.733 103.66 0 167.34" fill="#7f0000" stroke="#076c00" stroke-width="1.368"/>
 </g>
 <g stroke-width="2.9">
  <path d="m108.48 115.36c-24.949-2.738-64.169 15.236-72.433 55.444 39.708-71.289 101.35-40.654 103.16-43.955-9.146-6.445-19.784-10.347-30.732-11.489z" fill="url(#s)" opacity=".969"/>
  <path d="m479.1 112.81c-24.95-2.738-64.17 15.236-72.433 55.444 39.707-71.29 101.35-40.654 103.16-43.956-9.146-6.444-19.784-10.346-30.731-11.488z" fill="#7f003f" opacity=".969"/>
 </g>
 <path d="m396.89 206.22c-38.053 1.196-76.146 0.345-114.22 0.761-30.111 0.125-60.528-0.187-90.451 0.646-4.772 4.315-0.09201 3.794 4.477 3.488 67.242-0.364 134.48-0.018997 201.72-0.143-0.57398-1.134 0.34802-4.784-1.535-4.752z" fill="#fff" fill-rule="evenodd" opacity=".155"/>
</svg>
