<?xml version="1.0" encoding="UTF-8"?>
<svg version="1.1" viewBox="0 0 389.02 384.96" xmlns="http://www.w3.org/2000/svg">
 <defs>
  <filter id="k" color-interpolation-filters="sRGB">
   <feGaussianBlur stdDeviation="4.829471"/>
  </filter>
  <filter id="l" x="-.10279" y="-.027208" width="1.2056" height="1.0544" color-interpolation-filters="sRGB">
   <feGaussianBlur stdDeviation="1.0361659"/>
  </filter>
  <filter id="m" color-interpolation-filters="sRGB">
   <feGaussianBlur stdDeviation="0.54461492"/>
  </filter>
  <filter id="n" color-interpolation-filters="sRGB">
   <feGaussianBlur stdDeviation="0.68641554"/>
  </filter>
  <filter id="o" color-interpolation-filters="sRGB">
   <feGaussianBlur stdDeviation="0.62319934"/>
  </filter>
  <linearGradient id="p" x1="295.64" x2="353.23" y1="410.77" y2="346.88" gradientUnits="userSpaceOnUse">
   <stop stop-color="#7fef92" offset="0"/>
   <stop stop-color="#309f2c" stop-opacity="0" offset="1"/>
  </linearGradient>
  <linearGradient id="q" x1="304.09" x2="323.14" y1="229.28" y2="231.48" gradientTransform="translate(-2,2)" gradientUnits="userSpaceOnUse">
   <stop stop-color="#49f868" offset="0"/>
   <stop stop-color="#7fef92" stop-opacity="0" offset="1"/>
  </linearGradient>
  <linearGradient id="r" x1="322.51" x2="342.78" y1="493.52" y2="492.57" gradientUnits="userSpaceOnUse">
   <stop stop-color="#49f868" offset="0"/>
   <stop stop-color="#49f868" stop-opacity="0" offset="1"/>
  </linearGradient>
  <linearGradient id="s" x1="188.2" x2="195.46" y1="346.92" y2="370.08" gradientUnits="userSpaceOnUse">
   <stop stop-color="#57f472" stop-opacity=".45133" offset="0"/>
   <stop stop-color="#65e56d" stop-opacity=".46903" offset=".5"/>
   <stop stop-color="#43a136" stop-opacity=".9115" offset="1"/>
  </linearGradient>
  <linearGradient id="t" x1="452.77" x2="459.85" y1="325.34" y2="344.34" gradientUnits="userSpaceOnUse">
   <stop stop-color="#72ec6d" offset="0"/>
   <stop stop-color="#309f2c" stop-opacity="0" offset="1"/>
  </linearGradient>
 </defs>
 <g transform="translate(-69.858 -369.16)">
  <g transform="matrix(-.048779 .60932 -.60932 -.048779 509.07 352.49)">
   <g transform="translate(2.733 12.859)">
    <g transform="translate(-10.932 -2.733)">
     <path d="m96.098 80.383c-12.954 0.11265-23.027 1.7601-26.156 4.3125-10.488 8.5549-13.102 34.984-2.3438 74 5.9074 21.424 4.7676 20.611 22.156 49.344 19.414 16.783 25.424 22.397 42.688 32.781l54.875 26.562c17.872 14.128 32.365 42.256 45.344 63.625-10.565 8.4902-2.9577 7.2151-26.562 19.969-7.0851 3.8281-11.534 5.6669-20.031 8.7188-22.407 6.4223-23.994 5.2488-39.156 2.9375-0.78007-11.878-0.74026-20.315-2.3438-35.625-5.4525-6.0665-7.8779-4.0282-11.125-4.8125-2.5436 1.2437-1.5876 0.77698-5.1562 5.2812-0.87593 6.074-0.2636 19.779 1.1875 29.562-9.1787-4.5786-14.824-7.4884-27.562-13.719-4.6013-0.38529-10.821-0.10013-14.156 4.0938l-0.3125 7.4688c3.2866 6.7255 23.474 9.9283 38.281 12.25l-27.438 7.4375c-2.8772 2.5174-3.8228-0.64353-6.5313 7.8438 2.7584 6.6786 0.23145 5.2611 8.3438 7.7188 9.7703-2.5014 17.454-8.3424 26.188-12.5-3.1142 9.9296-8.6285 20.538-9.3438 29.812 1.4186 4.411 1.4219 6.5678 6.125 8.4688 2.5817-1.6489 4.7699-0.97332 7.75-4.9688 13.233-32.802 8.251-20.872 12.375-31.312l26.719 8.6562c15.342 3.0189 39.524-3.9363 61.031-11.656 21.053-10.594 18.185-8.8768 25.938-12.625 22.936 25.909 51.009 47.362 65.281 61.5 5.7888 3.5304 11.059 6.6329 15.969 9.4375-1.5729 5.9755-1.1839 5.4026-7.125 26.062-3.605 22.564-5.9945 47.607-0.1875 62.125l13.469 24.688c-9.4961 5.9854 1.2855-1.1396-28.5 17.938-3.3747 3.6682-2.2951 5.6889-3.4375 8.5312 2.7387 4.2699 4.8714 3.86 9.4688 4.4375 8.9814-2.4198 18.35-9.7889 27.531-14.688-2.469 9.3519-6.7568 17.998-7.4062 28.062 3.9169 7.5171 2.0512 5.3069 9.125 6.7812 7.8392-4.2328 4.5587-4.6128 6.5-7.9062l2.2188-28.344c5.0227 14.121 11.907 33.39 19.125 35.375l7.2812-1.6875c3.5039-4.0544 2.6367-10.237 1.4062-14.688-8.4809-11.365-12.395-16.359-18.594-24.531 9.8835-0.38521 23.474-2.3273 29.281-4.3125 3.7658-4.3408 3.4987-3.3327 4.25-6.0625-1.3718-3.0458 0.18979-5.7648-6.7812-10-15.343 1.2585-23.651 2.8489-35.469 4.2812-5.0783-14.473-6.507-15.823-4.3438-39.031 1.426-8.9158 2.3934-13.641 4.8438-21.312 7.5306-23.577 8.2337-18.812 13.312-27.312 14.528 6.5935 29.43 12.594 51.719 22.781 68.14 20.637 278.83 165.04 278.81 164.06-9e-3 -0.53544-208.48-193.73-235.5-226.12-16.195-19.415-24.346-30.596-30.5-39.25 8.2755-6.7696 2.8111-6.4988 25.344-17.906 7.1849-3.6374 11.674-5.3325 20.25-8.1562 22.57-5.8213 24.155-4.6218 39.25-1.9062 0.46244 11.895 0.18111 20.34 1.375 35.688 5.2885 6.21 7.7438 4.223 10.969 5.0938 2.5759-1.1753 1.6248-0.74892 5.3125-5.1562 1.0379-6.0484 0.81419-19.743-0.375-29.562 9.0531 4.8222 14.589 7.9003 27.156 14.469 4.5894 0.50807 10.835 0.35327 14.281-3.75l0.5-7.4375c-3.1057-6.811-23.198-10.565-37.938-13.281l27.625-6.6875c2.9434-2.4397 3.8158 0.75566 6.75-7.6562-2.579-6.7499-0.1125-5.264-8.1562-7.9375-9.8336 2.2394-17.69 7.8272-26.531 11.75 3.3784-9.8428 9.1934-20.28 10.156-29.531-1.3002-4.4473-1.2244-6.5991-5.875-8.625-2.6249 1.5793-4.7892 0.83563-7.875 4.75-14.105 32.437-8.8173 20.643-13.219 30.969l-26.5-9.3438c-15.256-3.4277-39.607 2.8887-61.312 10.031-21.909 10.301-18.077 8.2117-26.781 12.156-14.69-15.528-45.413-41.236-75.719-61.688 1.8474-6.1702 1.3694-5.3553 8.0625-26.062 4.3388-22.435 7.518-47.394 2.1875-62.094l-12.625-25.094c9.6862-5.6726-1.3604 1.0958 29.031-17 3.4925-3.5563 2.4842-5.6339 3.7188-8.4375-2.598-4.3569-4.7364-3.9917-9.3125-4.7188-9.0555 2.1256-18.664 9.1846-28 13.781 2.7726-9.2664 7.3353-17.775 8.3125-27.812-3.6698-7.6408-1.8843-5.3582-8.9062-7.0625-7.973 3.975-4.6711 4.4278-6.7188 7.6562l-3.1562 28.25c-4.5596-14.278-10.82-33.719-17.969-35.938l-7.3438 1.4375c-3.6342 3.938-2.9597 10.137-1.875 14.625 8.1058 11.636 11.852 16.755 17.781 25.125-9.8908 0.0628-23.506 1.5802-29.375 3.375-3.9053 4.2157-3.6288 3.2024-4.4688 5.9062 1.2718 3.0889-0.36048 5.7585 6.4688 10.219 15.375-0.7576 23.705-2.0787 35.562-3.125 4.6037 14.63 6.0126 16.031 3.0938 39.156-1.716 8.8645-2.8321 13.538-5.5312 21.125-8.4474 23.746-8.8963 18.388-14.531 27.375-26.64-10.963-54.249-17.018-54.562-17.281-0.42437-0.35705-13.708-16.874-25.938-54.5-10.746-33.063-7.6546-28.833-19.094-53-6.5193-13.773-14.835-32.849-43.594-45.563-18.442-8.1528-43.505-11.227-62.438-11.062z" fill="#309f2c" filter="url(#k)" stroke="#111711" stroke-linecap="round" stroke-linejoin="round" stroke-width="6.32"/>
     <path d="m94.098 84.383c-12.954 0.1127-23.027 1.7601-26.156 4.3125-10.488 8.5549-13.102 34.983-2.3438 74 5.9074 21.424 4.7676 20.611 22.156 49.344 19.414 16.782 25.424 22.397 42.687 32.781l54.875 26.562c13.003 10.279 24.218 27.97 34.362 45.076 3.7981 6.4047 7.4461 12.728 10.982 18.549-6.7993 5.4646-6.0721 6.8842-10.982 10.601-2.7191 2.0587-7.1671 4.8221-15.58 9.3676-7.085 3.828-11.534 5.667-20.032 8.719-22.406 6.422-23.993 5.249-39.156 2.937-0.78-11.878-0.74-20.314-2.344-35.625-5.452-6.066-7.877-4.028-11.125-4.812-2.543 1.244-1.587 0.777-5.156 5.281-0.876 6.074-0.263 19.779 1.188 29.563-9.179-4.579-14.824-7.489-27.563-13.719-4.6013-0.385-10.821-0.1-14.156 4.094l-0.3125 7.468c3.2865 6.726 23.475 9.929 38.282 12.25l-27.438 7.438c-2.8771 2.517-3.8228-0.644-6.5312 7.844 2.7584 6.678 0.2314 5.261 8.3437 7.718 9.7703-2.501 17.454-8.342 26.187-12.5-3.114 9.93-8.628 20.539-9.344 29.813 1.419 4.411 1.422 6.568 6.125 8.469 2.582-1.649 4.77-0.974 7.75-4.969 13.234-32.802 8.252-20.873 12.375-31.313l26.719 8.657c13.171 2.5916 32.854-2.1673 51.768-8.4502 3.1194-1.0362 6.2179-2.1138 9.2627-3.2068 21.053-10.594 18.186-8.876 25.938-12.625 22.936 25.909 51.009 47.363 65.281 61.5 5.789 3.531 11.059 6.633 15.969 9.438-1.573 5.975-1.184 5.403-7.125 26.062-3.605 22.565-5.995 47.607-0.188 62.125l13.469 24.688c-9.496 5.985 1.286-1.14-28.5 17.937-3.374 3.669-2.295 5.689-3.437 8.532 2.738 4.27 4.871 3.86 9.468 4.437 8.982-2.42 18.35-9.789 27.532-14.687-2.469 9.352-6.757 17.998-7.407 28.062 3.917 7.517 2.052 5.307 9.125 6.781 7.84-4.232 4.559-4.612 6.5-7.906l2.219-28.344c5.023 14.122 11.908 33.391 19.125 35.375l3.7518-0.8693 3.5292-0.8177c3.504-4.054 2.637-10.237 1.407-14.688-1.8363-2.4607-3.4585-4.6228-4.9362-6.583-5.3469-7.0932-8.8011-11.545-13.658-17.948 4.1792-0.1628 9.0215-0.60403 13.658-1.2092 6.3277-0.82592 12.272-1.9572 15.623-3.1028 3.766-4.341 3.499-3.333 4.25-6.063-1.372-3.046 0.19-5.765-6.781-10-4.9864 0.40918-9.2298 0.85331-13.092 1.3156-8.0218 0.96019-14.4 1.9988-22.377 2.9654-5.078-14.472-6.507-15.823-4.344-39.031 1.426-8.916 2.394-13.641 4.844-21.312 7.531-23.577 8.234-18.812 13.313-27.313 2.8233 1.2815 5.6608 2.5405 8.5638 3.8122 12.035 5.272 25.198 10.762 43.154 18.969 25.492 7.7204 70.933 32.762 117.83 61.033 78.461 47.3 160.99 103.64 160.98 103.03-6e-3 -0.35485-91.382-85.153-160.98-151.83-35.529-34.035-65.384-63.348-74.516-74.297-16.195-19.415-24.346-30.596-30.5-39.25 8.276-6.77 2.811-6.499 25.344-17.906 7.185-3.638 11.674-5.333 20.25-8.157 22.57-5.821 24.154-4.621 39.25-1.906 0.462 11.895 0.181 20.34 1.375 35.688 5.288 6.21 7.744 4.223 10.968 5.093 2.576-1.175 1.625-0.749 5.313-5.156 1.038-6.048 0.814-19.743-0.375-29.562 1.0021 0.53378 1.9612 1.0462 2.8914 1.5443 7.4734 4.0019 13.089 7.0827 24.265 12.924 4.59 0.508 10.835 0.354 14.281-3.75l0.5-7.437c-3.105-6.811-23.197-10.565-37.937-13.281l27.625-6.688c2.943-2.439 3.816 0.756 6.75-7.656-2.579-6.75-0.113-5.264-8.156-7.938-9.834 2.24-17.69 7.828-26.532 11.75 3.379-9.842 9.194-20.279 10.157-29.531-1.3-4.447-1.225-6.599-5.875-8.625-1.7608 1.0592-3.3142 1.0736-5.0776 2.1496-0.86545 0.52809-1.7815 1.3119-2.7974 2.6004-14.105 32.437-8.818 20.643-13.219 30.969l-26.5-9.344c-15.256-3.428-39.607 2.889-61.313 10.031-21.909 10.301-18.077 8.212-26.781 12.157-7.0432-7.4454-17.772-17.23-30.373-27.654-13.681-11.317-29.57-23.387-45.346-34.034 1.848-6.17 1.37-5.355 8.063-26.062 4.339-22.435 7.518-47.394 2.187-62.094l-12.625-25.094c9.687-5.672-1.36 1.096 29.032-17 3.492-3.556 2.484-5.634 3.718-8.437-2.598-4.357-4.736-3.992-9.312-4.719-9.056 2.126-18.664 9.185-28 13.781 2.773-9.266 7.335-17.774 8.312-27.812-3.669-7.641-1.884-5.359-8.906-7.063-7.973 3.975-4.671 4.428-6.719 7.656l-3.156 28.25c-4.559-14.277-10.819-33.718-17.969-35.937l-7.343 1.437c-3.634 3.938-2.96 10.137-1.875 14.625 8.106 11.636 11.852 16.755 17.781 25.125-9.891 0.063-23.507 1.581-29.375 3.375-3.905 4.216-3.629 3.203-4.469 5.907 1.272 3.089-0.36 5.758 6.469 10.218 15.375-0.757 23.705-2.078 35.562-3.125 4.604 14.631 6.013 16.031 3.094 39.157-1.716 8.864-2.832 13.537-5.531 21.125-8.447 23.746-8.896 18.387-14.531 27.375-26.64-10.964-54.25-17.018-54.563-17.282-0.41875-0.35257-13.381-16.467-25.482-53.11-0.1519-0.45997-0.30367-0.92318-0.45527-1.3896-10.747-33.063-7.655-28.833-19.094-53-6.519-13.773-14.835-32.849-43.594-45.562-18.442-8.1528-43.505-11.227-62.437-11.062z" fill="#309f2c" stroke="#449e44" stroke-linecap="round" stroke-linejoin="round" stroke-width="4.2196"/>
     <path d="m63.688 92.15c-2.8214 28.05-7.3023 25.291 6.5321 81.651 13.831 23.473 7.625 25.26 48.99 60.422l72.019 40.925c37.909 49.115 23.624 38.563 52.99 76.051 11.71 16.253 2.8425 20.13 84.717 82.384 100.72 56.097 86.116 40.537 127.51 59.555 79.808 40.197 98.824 57.577 140.74 82.617l104.38 68.52-134.91-107.95-109.41-76.752-130.81-80.651c-36.793-26.317-30.604-13.488-102.88-91.449l-78.451-79.351c-54.25-58.992-54.279-77.318-81.418-115.98z" fill="url(#p)" fill-rule="evenodd"/>
     <path transform="matrix(.99957 .029276 -.029276 .99957 6.7617 -9.101)" d="m302.09 265.4c12.165 3.5246 10.004 4.4445 14.996 6.6649 3.0548-12.219 4.4224-5.8797 9.1643-36.657 0.21971-27.379-0.6206-29.127-5.0978-42.832l-5.5372-11.909c7.0978 22.853 4.1269 22.873 3.97 33.913-6.2196 30.9-1.9426 9.5515-9.1643 37.49-6.8653 13.437-5.5541 8.8866-8.3312 13.33z" fill="url(#q)" fill-rule="evenodd" filter="url(#l)"/>
     <path d="m334.55 439.98c-1.64 5.5683-0.65135 4.0521-6.3093 24.724-1.1121 7.1287-1.4398 6.6825-2.5612 25.648-0.68549 14.131-1.0761 12.876 0.50868 27.589 2.185 9.1254 2.7592 11.057 9.049 22.083 3.4819 6.2004 3.3227 6.0286 5.7426 9.4193 2.3134-3.0917 5.708-4.8861 10.044-5.5508-5.9541-7.2663-10.347-13.796-13.913-22.257-2.9919-6.4175-2.932-9.474-3.8284-12.592-0.50035-29.95 2.9162-39.58 4.7521-46.253 1.584-4.505 3.168-7.3826 4.7521-10.771 6.0713-3.8883 8.5864-1.8497 12.355-1.9008-6.7715-2.9161-13.439-5.3108-20.592-10.138z" fill="url(#r)" fill-rule="evenodd"/>
     <path d="m147.99 367.76c8.8217 1.0124 17.356 0.51343 26.736-1.2631 9.9049-2.2753 18.442-5.2344 26.104-8.6312 6.5962-3.0436 13.192-6.3226 19.789-11.578 4.0742-3.3693 7.013-6.4548 8.8417-9.2627l11.789 15.578c-7.3051 5.4505-15.923 9.9161-25.473 13.684-8.7715 3.7673-17.964 5.8432-26.736 7.3681-6.1004 0.49212-11.645 1.9375-20.42 1.8947-7.5284 0.47126-14.594 0.56302-23.157 0 1.8139-2.3534 2.9496-4.8764 2.5262-7.7891z" fill="url(#s)" fill-rule="evenodd" filter="url(#m)"/>
     <path d="m412.81 345.39c5.1734-2.7449 10.066-5.1909 18.093-8.2924 4.5789-2.5691 16.508-6.9275 23.822-8.594 9.1994-2.7994 23.175-4.6933 24.727-4.9755 3.3441-0.60822 12.966-1.1734 20.203 0.75387 7.3827 1.5834 16.648 5.3658 23.973 8.2924-1.158 2.6647-2.5107 5.4267-2.8647 7.6894-7.7396-3.6256-14.876-5.292-22.616-5.7293-7.0406-0.67578-23.841 0.58975-21.862 0.75386-8.1215 1.1829-15.319 2.5929-22.465 4.6739-6.6513 1.9583-13.584 4.7299-19.751 7.6894-7.9184 3.5611-8.9656 7.504-9.8002 11.459-2.8228-4.2914-7.4583-9.0363-11.459-13.72z" fill="url(#t)" fill-rule="evenodd"/>
     <path transform="matrix(.93753 0 0 1.0017 9.102 -.23695)" d="m166.45 138.68c0 4.9962-4.5902 9.0463-10.252 9.0463-5.6623 0-10.252-4.0502-10.252-9.0463s4.5902-9.0463 10.252-9.0463c5.6623 0 10.252 4.0502 10.252 9.0463z" fill="#f95" fill-rule="evenodd" stroke="#000" stroke-width="1px"/>
     <path transform="matrix(1.0617 0 0 .95608 -8.993 11.222)" d="m98.906 174.87c0 4.9962-3.7802 9.0463-8.4432 9.0463s-8.4432-4.0502-8.4432-9.0463 3.7802-9.0463 8.4432-9.0463 8.4432 4.0502 8.4432 9.0463z" fill="#f95" fill-rule="evenodd" filter="url(#o)" stroke="#000" stroke-miterlimit="6" stroke-width="1.993"/>
     <path transform="matrix(.93753 0 0 1.0017 9.102 -.23695)" d="m166.45 138.68c0 4.9962-4.5902 9.0463-10.252 9.0463-5.6623 0-10.252-4.0502-10.252-9.0463s4.5902-9.0463 10.252-9.0463c5.6623 0 10.252 4.0502 10.252 9.0463z" fill="#f95" fill-rule="evenodd" filter="url(#n)" stroke="#000" stroke-miterlimit="6" stroke-width="2.0721"/>
     <path transform="matrix(1.2784 0 0 1.2677 -43.29 -38.812)" d="m156.9 138.51c0 1.8838-1.4684 3.4109-3.2797 3.4109s-3.2797-1.5271-3.2797-3.4109 1.4684-3.4109 3.2797-3.4109 3.2797 1.5271 3.2797 3.4109z" fill="#241c1c" fill-rule="evenodd" stroke="#000" stroke-width="1px"/>
     <path transform="matrix(1.228 0 0 1.4652 -20.125 -85.427)" d="m88.683 178.78c0 1.6664-1.4684 3.0173-3.2797 3.0173s-3.2797-1.3509-3.2797-3.0173 1.4684-3.0173 3.2797-3.0173 3.2797 1.3509 3.2797 3.0173z" fill="#241c1c" fill-rule="evenodd" stroke="#000" stroke-width="1px"/>
     <path d="m67.3 110c0 0.66035-0.6118 1.1957-1.3665 1.1957-0.75469 0-1.3665-0.53533-1.3665-1.1957 0-0.66036 0.6118-1.1957 1.3665-1.1957 0.75469 0 1.3665 0.53532 1.3665 1.1957z" fill="#483737" fill-rule="evenodd" stroke="#000" stroke-width="1px"/>
     <path d="m81.989 99.918c0 0.75469-0.45885 1.3665-1.0249 1.3665s-1.0249-0.6118-1.0249-1.3665c0-0.75469 0.45885-1.3665 1.0249-1.3665s1.0249 0.6118 1.0249 1.3665z" fill="#483737" fill-rule="evenodd" stroke="#000" stroke-width="1px"/>
    </g>
   </g>
  </g>
 </g>
</svg>
